<?xml version="1.0" standalone="no"?>
<!DOCTYPE svg PUBLIC "-//W3C//DTD SVG 20010904//EN"
 "http://www.w3.org/TR/2001/REC-SVG-20010904/DTD/svg10.dtd">
<svg version="1.0" xmlns="http://www.w3.org/2000/svg"
 width="300.000000pt" height="100.000000pt" viewBox="0 0 300.000000 100.000000"
 preserveAspectRatio="xMidYMid meet">
<metadata>
Created by potrace 1.16, written by Peter Selinger 2001-2019
</metadata>
<g transform="translate(0.000000,100.000000) scale(0.046802,-0.023810)"
fill="#000000" stroke="none">
<path d="M1074 2568 c-12 -5 -27 -21 -33 -34 -15 -34 -15 -753 0 -787 6 -14
22 -30 36 -36 16 -7 160 -11 454 -11 l430 0 24 25 25 24 0 391 0 391 -25 24
-24 25 -433 -1 c-276 0 -441 -4 -454 -11z m574 -172 c43 -22 119 -99 104 -104
-7 -2 -25 10 -41 27 -16 17 -32 31 -35 31 -3 0 -17 -12 -31 -26 -24 -24 -32
-26 -74 -20 -45 6 -50 4 -66 -20 -14 -21 -15 -28 -4 -35 17 -10 29 -2 29 19 0
14 2 14 9 3 12 -19 3 -41 -18 -41 -23 0 -63 -29 -56 -41 4 -5 -1 -9 -9 -9 -9
0 -16 -7 -16 -15 0 -21 17 -19 47 5 24 19 26 19 49 2 27 -19 30 -35 10 -51
-15 -12 -46 -5 -46 11 0 17 -54 -1 -73 -24 -10 -12 -17 -33 -17 -47 4 -48 1
-53 -22 -45 -13 3 -30 13 -39 20 -9 8 -31 19 -50 24 -29 8 -32 7 -16 -4 9 -7
17 -18 17 -25 0 -17 72 -106 83 -103 10 3 27 -16 27 -30 0 -23 -40 -1 -86 46
-151 155 -90 400 116 467 41 14 171 4 208 -15z m127 -166 c26 -52 32 -80 15
-80 -6 0 -10 -52 -10 -135 0 -83 4 -135 10 -135 6 0 10 -4 10 -10 0 -6 -100
-10 -280 -10 -180 0 -280 4 -280 10 0 6 37 10 90 10 l90 0 0 28 c0 15 -5 33
-10 38 -15 15 35 125 53 118 15 -5 57 -86 57 -109 0 -8 -4 -15 -10 -15 -5 0
-10 -13 -10 -30 0 -27 3 -30 30 -30 l30 0 0 84 c0 59 -4 86 -12 89 -15 5 35
117 52 117 17 0 67 -112 53 -117 -9 -3 -13 -30 -13 -89 l0 -84 30 0 30 0 0
133 c0 80 -4 137 -11 144 -7 7 -2 27 17 67 16 31 32 56 36 56 4 0 19 -22 33
-50z"/>
<path d="M1477 2360 c-9 -22 -17 -43 -17 -46 0 -3 -19 -23 -42 -45 l-43 -40
-17 22 c-21 24 -22 21 -8 -17 9 -24 6 -34 -29 -85 -41 -60 -42 -69 -6 -69 12
0 30 -9 40 -20 25 -27 35 -25 35 8 0 16 7 37 15 48 8 10 15 31 15 46 0 24 33
68 50 68 4 0 5 10 3 23 -5 28 35 78 62 78 11 0 34 -3 51 -7 21 -4 34 -1 43 10
21 25 7 42 -43 55 -77 19 -89 16 -109 -29z"/>
<path d="M2562 2328 c-7 -7 -12 -26 -12 -44 0 -23 -5 -33 -20 -37 -11 -3 -20
-12 -20 -21 0 -8 9 -20 20 -26 18 -10 20 -21 20 -109 0 -89 2 -99 23 -119 43
-41 153 -20 117 22 -6 8 -24 16 -38 18 -27 3 -27 4 -30 91 l-3 87 29 0 c33 0
57 22 48 45 -3 9 -18 15 -41 15 -32 0 -35 2 -35 29 0 27 -21 61 -39 61 -4 0
-12 -5 -19 -12z"/>
<path d="M3132 2328 c-7 -7 -12 -26 -12 -44 0 -23 -5 -33 -20 -37 -11 -3 -20
-12 -20 -21 0 -8 9 -20 20 -26 18 -10 20 -21 20 -106 0 -88 2 -97 25 -120 20
-20 33 -25 67 -22 25 2 45 10 52 20 13 21 6 29 -36 37 l-33 7 -3 87 -3 87 29
0 c33 0 57 22 48 45 -3 9 -18 15 -41 15 -33 0 -35 2 -35 35 0 24 -6 37 -19 45
-24 13 -24 13 -39 -2z"/>
<path d="M3880 2321 c-5 -11 -10 -31 -10 -45 0 -16 -6 -26 -14 -26 -24 0 -29
-33 -7 -50 16 -13 20 -31 23 -114 4 -89 6 -100 28 -118 32 -26 113 -22 118 6
4 21 -13 36 -44 36 -29 0 -34 17 -34 106 l0 74 29 0 c16 0 37 7 46 16 22 23 2
44 -41 44 -32 0 -34 2 -34 33 0 53 -39 77 -60 38z"/>
<path d="M2303 2249 c-55 -16 -83 -98 -44 -133 10 -9 45 -27 77 -39 59 -23 80
-50 52 -68 -20 -13 -70 -10 -98 6 -38 22 -60 19 -60 -8 0 -32 55 -57 124 -57
48 0 57 3 80 31 50 59 31 109 -54 140 -66 24 -85 41 -76 65 5 12 15 15 49 11
23 -3 53 -7 67 -9 19 -2 26 2 28 19 3 19 -5 24 -49 37 -29 9 -55 16 -58 15 -3
0 -21 -5 -38 -10z"/>
<path d="M2845 2251 c-51 -8 -65 -17 -65 -41 0 -23 17 -29 55 -18 16 4 40 8
51 8 27 0 62 -29 66 -54 3 -17 -3 -19 -68 -17 -62 2 -75 -1 -98 -21 -16 -14
-29 -38 -33 -60 -5 -32 -1 -41 25 -68 26 -25 38 -30 79 -30 28 0 58 7 71 16
22 15 24 15 36 -1 7 -9 21 -16 32 -13 17 3 19 14 22 116 l3 113 -35 35 c-19
19 -43 34 -54 34 -11 0 -26 2 -34 4 -7 2 -31 0 -53 -3z"/>
<path d="M3414 2246 c-74 -33 -110 -157 -65 -229 39 -64 145 -89 210 -51 37
22 45 39 25 55 -12 10 -22 9 -50 -4 -48 -23 -87 -21 -111 6 -47 52 -42 56 75
59 l107 3 3 41 c2 33 -2 48 -25 74 -46 55 -108 72 -169 46z"/>
<path d="M4162 2249 c-51 -10 -62 -16 -62 -34 0 -23 30 -34 62 -23 38 13 95 2
108 -22 22 -40 14 -46 -62 -42 -67 4 -75 2 -100 -22 -38 -34 -39 -96 -3 -131
32 -33 110 -35 149 -4 21 16 26 17 26 5 0 -24 41 -31 58 -10 20 27 12 203 -12
239 -26 40 -91 58 -164 44z"/>
<path d="M4432 2248 c-19 -19 -14 -35 21 -75 63 -73 62 -65 12 -127 -26 -31
-45 -64 -43 -74 6 -32 41 -18 84 35 l43 53 38 -48 c56 -69 74 -78 92 -43 9 15
3 27 -27 62 -69 81 -68 71 -17 130 50 59 54 73 25 89 -17 9 -25 4 -62 -44
l-42 -55 -51 55 c-28 29 -53 54 -56 54 -3 0 -10 -5 -17 -12z"/>
<path d="M4834 2246 c-85 -38 -117 -161 -62 -239 27 -38 71 -58 129 -59 71 0
131 44 100 75 -8 8 -20 6 -46 -6 -37 -18 -72 -21 -100 -11 -13 6 -45 53 -45
68 0 3 48 7 108 8 l107 3 3 35 c3 39 -24 90 -60 114 -34 22 -98 28 -134 12z"/>
<path d="M5163 2249 c-40 -11 -63 -43 -63 -86 0 -41 25 -65 94 -86 56 -18 75
-39 55 -63 -15 -19 -60 -18 -110 2 -35 14 -42 15 -50 3 -14 -23 -11 -28 31
-49 87 -44 182 -17 196 56 9 47 -18 75 -97 104 -51 18 -60 25 -57 43 3 19 9
22 48 20 25 -1 56 -3 70 -5 19 -2 25 1 25 17 0 34 -83 60 -142 44z"/>
</g>
</svg>
