<svg xmlns="http://www.w3.org/2000/svg" width='175' height="30" viewBox="0 0 175 19" fill="none" >
<path fill="#3F3F3F" opacity="1.000000" stroke="none" d=" M53.697132,1.325063   C66.687561,1.000000 79.375122,1.000000 92.531342,1.000000   C95.099960,2.636509 95.000374,4.980901 95.174484,7.319528   C96.951233,31.183605 100.279495,54.707809 110.312637,76.787125   C111.952629,80.396164 112.969757,84.260658 113.602356,88.568909   C113.422272,89.925514 113.431732,91.030731 112.779320,91.759872   C110.218964,94.621376 111.769333,96.208443 114.269852,97.955215   C117.665771,100.327507 117.547699,101.202988 113.996208,104.243828   C115.852272,104.612007 117.617371,103.038727 119.997910,103.815598   C121.429817,104.403442 122.399170,105.132385 122.981209,106.137047   C128.659592,115.938614 135.493179,124.925621 142.374435,133.885406   C148.168015,141.428986 154.766327,148.243805 161.844864,154.528366   C174.150772,165.453949 186.500549,176.361908 201.374435,183.889435   C203.890213,185.162643 207.018661,186.516907 206.227203,190.717529   C185.645767,191.000000 165.291550,191.000000 144.468658,191.000000   C133.520935,185.361008 126.746376,175.683212 118.508751,167.602844   C107.283463,156.591858 99.301125,143.107162 90.259201,130.432922   C87.936462,127.177101 86.274086,123.530624 84.433640,120.000427   C83.320053,117.864433 82.980072,115.564590 84.916962,113.160004   C87.131432,111.582886 89.374519,111.918045 91.501572,111.758049   C94.619293,111.523560 96.554718,110.098915 96.671593,106.853722   C96.929268,99.698860 96.949585,92.540054 96.649025,85.385567   C96.568077,83.458748 95.779587,81.841301 93.643311,80.634613   C91.537834,78.498344 89.209267,78.554413 86.890022,78.497986   C80.473518,78.341866 74.046814,78.851776 67.232315,78.019379   C62.444141,73.597229 62.065491,67.649963 60.682465,62.306297   C56.515427,46.205940 53.369324,29.879068 52.846363,13.188908   C52.726505,9.363684 50.291023,5.342436 53.697132,1.325063  z"/>
<path fill="#484848" opacity="1.000000" stroke="none" d=" M308.718018,158.739746   C309.000000,166.354248 309.000000,173.708496 309.000000,181.531372   C307.329742,184.065247 304.997772,184.034973 302.635712,184.129166   C292.581116,184.530167 282.881927,182.449539 273.091888,180.496613   C256.000702,177.087234 239.885391,171.211655 224.462982,163.196487   C198.384979,149.643494 176.539871,131.126511 158.691437,107.336868   C158.151581,106.093910 158.243454,104.892349 157.388306,104.300476   C153.519409,101.622726 153.679916,98.013840 154.755508,94.062775   C155.609512,90.925751 154.727539,88.541153 151.017792,87.354141   C148.230530,85.752731 147.260025,83.216614 145.926651,80.923988   C136.607620,64.900635 131.831192,47.277615 128.391891,29.314068   C126.996880,22.027996 125.678230,14.648234 125.048164,7.208835   C124.878738,5.208416 124.807007,3.186067 126.716995,1.304355   C133.354401,1.000000 139.708786,1.000000 146.531586,1.000000   C151.326294,5.027339 150.236664,10.662716 150.873657,15.570368   C154.032761,39.909275 162.635880,62.233257 175.261383,83.060623   C179.187454,89.537170 184.367264,95.223625 189.092590,101.610947   C190.761795,102.601173 191.640121,103.896698 192.996185,105.230438   C200.435699,113.098984 207.594818,120.749229 216.412430,126.502739   C235.198990,138.761032 255.272461,148.196594 277.245819,153.137009   C285.828278,155.066650 294.664429,155.572128 303.369202,156.841461   C305.179138,157.105377 307.059540,156.954437 308.718018,158.739746  z"/>
<path fill="#444444" opacity="1.000000" stroke="none" d=" M112.409164,90.776291   C110.894615,86.233162 110.150749,81.669647 108.193253,77.705399   C101.534813,64.221016 98.649269,49.732147 96.126480,35.130234   C94.230537,24.156534 92.255600,13.167955 92.999832,1.467856   C99.354401,1.000000 105.708794,1.000000 112.531601,1.000000   C116.417831,4.486583 115.649658,9.177519 115.918755,13.265586   C117.457748,36.646461 123.733749,58.671112 133.889969,79.674522   C135.192459,82.368134 136.204346,85.198143 137.864975,88.146393   C138.719421,90.076797 137.883636,91.920692 138.984070,93.787613   C139.168869,94.612160 139.186935,95.092583 139.060532,95.924973   C138.729294,96.889549 138.345779,97.397720 137.842712,97.843330   C136.230698,99.271217 135.247650,101.016182 136.598831,103.005203   C137.756378,104.709190 139.605667,104.826118 141.453583,104.056259   C143.726593,103.109306 145.932999,103.377655 148.423599,104.518524   C161.764572,124.049469 178.041611,140.146454 196.883896,153.836533   C217.450195,168.779251 240.323044,178.512527 264.667542,185.219162   C267.454834,185.987030 271.332855,185.905731 271.223236,190.705719   C249.645767,191.000000 228.291550,191.000000 206.468658,191.000000   C205.054733,187.232971 201.510651,186.142715 198.758224,184.667191   C179.715027,174.458511 163.906052,160.284851 149.177551,144.771210   C137.743942,132.728104 128.148483,119.305801 119.750763,104.531769   C118.414803,101.521378 117.947037,98.502510 114.494736,97.387680   C111.104500,96.292870 114.520538,92.799675 112.409164,90.776291  z"/>
<path fill="#373737" opacity="1.000000" stroke="none" d=" M6.726640,1.293541   C14.020947,1.000000 21.041895,1.000000 28.531422,1.000000   C30.505087,2.264137 31.031546,3.900886 31.123920,5.839447   C32.057983,25.442011 35.190010,44.750610 39.484058,63.853439   C41.594109,73.240387 45.220356,82.229744 48.314674,91.340271   C49.278099,94.176865 47.461403,97.974030 51.428909,100.168304   C53.967255,103.352432 52.661594,106.953201 53.746136,110.485603   C52.917774,114.057152 55.360809,116.006317 56.569450,118.437943   C60.196880,125.735847 64.130798,132.870209 68.312332,139.853241   C76.765663,153.970016 85.911522,167.585297 97.077675,179.787582   C99.827492,182.792542 103.968430,185.323822 103.230560,190.714325   C94.312439,191.000000 85.624870,191.000000 76.468658,191.000000   C67.059425,184.169189 61.776466,174.399277 55.666431,165.350174   C45.326908,150.037094 36.204952,133.975311 29.034042,116.941391   C21.938272,100.085953 16.344175,82.686127 12.334429,64.807495   C8.112548,45.982998 5.114725,27.000805 4.887978,7.660028   C4.862995,5.529126 4.623264,3.271881 6.726640,1.293541  z"/>
<path fill="#515151" opacity="1.000000" stroke="none" d=" M308.718994,96.740692   C309.000000,105.687561 309.000000,114.375130 309.000000,123.531342   C305.001312,127.716660 299.971191,126.668564 295.733063,125.701584   C284.122528,123.052483 272.282532,120.971352 261.340912,115.954193   C256.897766,113.916840 251.846344,112.614014 249.349731,107.284607   C249.752197,105.383011 250.805145,104.958076 252.308563,104.789948   C254.181183,104.580528 255.928848,103.638428 256.365112,101.668633   C256.886230,99.315773 254.888062,98.689163 253.229919,97.838097   C250.675018,96.526733 249.750656,94.758667 251.785294,92.335907   C249.633911,93.608749 248.664108,95.282570 251.376343,97.131393   C253.242737,98.403648 256.150238,98.716026 255.501144,101.866043   C254.960007,104.492157 252.573929,104.620644 250.388275,104.889336   C249.724335,104.970955 249.486465,105.807442 248.876190,106.627205   C246.532761,108.012383 244.633270,107.383980 242.479462,106.087791   C241.370468,104.991714 240.566589,104.558899 239.184616,104.791336   C236.494125,105.243874 234.447815,103.925415 234.453537,101.158607   C234.459015,98.495972 236.848053,98.495056 238.882462,98.493134   C239.870682,98.492203 240.868958,98.502060 241.743881,97.362549   C242.061447,91.914230 238.789749,92.399117 235.066299,93.269791   C233.660187,93.850868 232.811371,94.748642 231.297882,95.151718   C229.668579,95.202904 228.478378,94.908096 227.082977,94.032455   C225.784195,93.003250 225.521881,91.707726 224.521881,90.452408   C211.458786,78.125847 200.954178,64.369179 193.724258,48.275345   C188.120773,35.801910 184.925186,22.617445 183.055939,9.116944   C182.704361,6.577660 182.286484,3.758044 184.736237,1.285668   C193.020905,1.000000 201.041809,1.000000 209.531357,1.000000   C212.333755,3.049403 212.570908,5.934281 213.020477,8.710177   C218.458160,42.286335 235.991516,67.433716 265.822998,83.751282   C277.461914,90.117683 290.086029,93.748405 303.363953,94.859200   C305.196838,95.012535 307.060211,94.955513 308.718994,96.740692  z"/>
<path fill="#4B4B4B" opacity="1.000000" stroke="none" d=" M309.000000,158.532059   C283.853180,158.364029 260.039276,152.525986 237.559402,141.114578   C221.941315,133.186386 207.161850,124.186890 195.408112,110.911247   C194.207306,109.554955 192.587967,108.521080 192.062653,106.261955   C192.172470,101.407959 189.959473,96.888924 192.134277,92.355591   C192.485535,91.623413 191.798004,90.639961 190.797806,90.843330   C189.905060,91.024841 189.639038,91.902206 189.857117,92.806488   C190.241180,94.398964 190.926880,95.919754 190.960846,97.595253   C190.997818,99.417664 191.042725,101.236816 189.312042,102.834328   C183.521194,100.738846 181.513458,95.170288 178.262848,90.992859   C170.378403,80.860435 164.549698,69.400490 159.762207,57.477020   C153.665024,42.291676 149.617493,26.575033 147.996902,10.261595   C147.718140,7.455572 147.336761,4.659744 147.001404,1.429604   C153.354401,1.000000 159.708786,1.000000 166.531586,1.000000   C168.870773,2.530874 168.990051,4.637787 169.138489,6.852775   C170.665924,29.646687 177.434174,50.695278 189.861816,69.956093   C193.904434,76.221497 198.700394,81.961960 202.450256,88.828354   C202.366760,92.727524 202.762863,96.187721 200.743378,99.600067   C199.091476,102.391312 201.293884,104.642929 204.570969,103.952553   C206.508392,103.544395 208.411896,103.119743 210.750244,103.552536   C212.254456,103.968422 213.335571,104.603928 214.980286,104.494064   C215.862991,104.515099 216.369888,104.536095 217.262009,104.614410   C222.208588,106.520195 225.486847,110.205009 229.377090,113.007408   C246.896347,125.627647 266.492218,132.598343 287.674225,136.224838   C294.575745,137.406418 302.032959,136.614624 308.713257,140.732666   C309.000000,146.688034 309.000000,152.376083 309.000000,158.532059  z"/>
<path fill="#343434" opacity="1.000000" stroke="none" d=" M6.500528,1.000000   C6.686536,23.239725 9.924316,45.038708 15.118922,66.597855   C20.041082,87.026276 26.236174,107.057693 35.556438,125.923256   C45.289864,145.625107 56.631023,164.408173 69.957664,181.941437   C72.028534,184.665985 75.417648,186.452057 75.982430,190.637573   C67.645767,191.000000 59.291534,191.000000 50.468651,191.000000   C43.300041,186.388443 39.983555,179.007889 35.827656,172.547989   C28.738152,161.528076 22.018059,150.228424 15.860281,138.611847   C9.598291,126.798630 5.524345,114.200157 1.241913,101.279442   C1.000000,69.317215 1.105221,37.633659 0.875766,5.952534   C0.844742,1.669000 1.856343,0.148119 6.500528,1.000000  z"/>
<path fill="#3A3A3A" opacity="1.000000" stroke="none" d=" M103.468658,191.000000   C101.541504,186.966721 98.356155,184.122574 95.546288,181.218002   C87.408051,172.805511 81.043098,163.103622 74.384575,153.596848   C66.265793,142.005203 59.986496,129.358261 53.285797,116.950356   C52.551651,115.590919 51.954102,114.291084 52.008957,112.353363   C62.830952,112.054939 73.711395,110.445419 84.720901,113.506516   C84.677315,119.350777 88.381241,123.269676 90.898170,127.346542   C96.894485,137.059280 103.443039,146.470078 110.325127,155.582474   C114.504524,161.116302 119.634285,165.951035 124.492134,170.949158   C130.855499,177.496277 137.371841,183.894714 143.911194,190.678558   C130.645767,191.000000 117.291542,191.000000 103.468658,191.000000  z"/>
<path fill="#585858" opacity="1.000000" stroke="none" d=" M243.735641,1.302803   C253.687561,1.000000 263.375122,1.000000 273.531342,1.000000   C276.415741,2.923413 276.592651,5.967983 277.595490,8.539869   C281.945404,19.695930 289.978546,26.758350 301.144287,30.600958   C303.619202,31.452677 306.450989,31.462709 308.731995,33.748184   C309.000000,43.354229 309.000000,52.708458 309.000000,62.531342   C306.177612,66.086342 302.484070,65.467758 299.204651,64.685005   C275.758636,59.088673 258.150940,45.880295 247.610764,23.955584   C244.879196,18.273592 243.680374,12.017599 242.541031,5.815330   C242.260376,4.287496 242.389893,2.838309 243.735641,1.302803  z"/>
<path fill="#535353" opacity="1.000000" stroke="none" d=" M309.000000,96.533882   C256.803375,96.501823 213.554611,53.712395 210.000183,1.433686   C215.022095,1.000000 220.044189,1.000000 225.533142,1.000000   C227.261581,2.184841 227.879349,3.591166 228.088577,5.364217   C230.775070,28.128874 241.834854,46.078922 259.065338,60.910355   C271.154022,71.315918 285.354584,76.013206 300.496216,79.019112   C303.209015,79.557648 306.194733,79.378807 308.720764,81.740997   C309.000000,86.689255 309.000000,91.378510 309.000000,96.533882  z"/>
<path fill="#3A3A3A" opacity="1.000000" stroke="none" d=" M51.115929,100.833115   C48.749645,101.002533 47.547352,99.870468 47.295338,98.055855   C46.121689,89.604927 42.394165,81.928108 40.075123,73.825996   C33.347633,50.321949 29.509113,26.386389 29.000000,1.465553   C37.020901,1.000000 45.041798,1.000000 53.531349,1.000000   C55.204071,22.922026 57.839432,44.619961 64.071358,65.761909   C65.100975,69.254913 66.008827,72.783813 66.996971,76.689209   C65.764046,78.912239 63.819111,78.380089 62.080235,78.489731   C60.121876,78.613213 58.098907,78.459335 56.350868,80.467712   C52.836727,82.580017 53.453995,85.756332 53.165783,88.682640   C52.770721,92.693741 54.429401,97.006462 51.115929,100.833115  z"/>
<path fill="#565656" opacity="1.000000" stroke="none" d=" M309.000000,81.531731   C282.941772,80.412033 261.316467,70.108414 244.728394,49.629856   C235.667160,38.443409 229.569931,25.957367 226.671799,11.837606   C225.987900,8.505579 226.121628,5.223638 226.000000,1.454822   C231.688034,1.000000 237.376083,1.000000 243.532059,1.000000   C246.413452,29.159302 266.627686,53.383797 293.915314,61.032532   C298.590057,62.342873 303.221161,63.385441 308.546448,63.000000   C309.000000,69.021156 309.000000,75.042305 309.000000,81.531731  z"/>
<path fill="#313131" opacity="1.000000" stroke="none" d=" M1.000000,101.468658   C3.201637,101.466942 3.462851,103.408577 4.209813,105.064819   C9.457693,116.700989 12.606079,129.203201 19.117117,140.331726   C28.169373,155.803650 37.021980,171.391891 47.507084,185.966354   C48.489429,187.331818 49.464870,188.649292 49.939068,190.651154   C34.881222,191.000000 19.760389,190.867691 4.645255,191.102341   C1.287166,191.154480 0.926860,190.054749 0.937398,187.167114   C1.041074,158.757492 1.000000,130.347321 1.000000,101.468658  z"/>
<path fill="#454545" opacity="1.000000" stroke="none" d=" M271.468658,191.000000   C270.400970,188.571121 268.346436,188.318497 266.386749,187.872589   C247.296677,183.528778 229.452209,175.843903 212.396835,166.526154   C199.327484,159.386047 187.178726,150.678284 176.572662,140.058365   C167.309326,130.782898 157.608292,121.909065 150.197861,110.933479   C148.949646,109.084755 147.895874,107.321480 147.613831,104.679123   C145.200790,102.153412 145.967361,99.386116 146.113113,96.856361   C146.236313,94.717506 147.494492,93.057663 149.835831,92.999847   C152.432648,92.935738 153.586533,94.660316 153.925659,97.034721   C154.041672,97.847069 154.066605,98.680824 153.989700,99.492020   C153.692154,102.630180 155.337097,103.997780 158.634003,104.425552   C169.629822,119.440910 182.699905,131.981262 196.959213,143.149231   C218.137695,159.736343 242.109909,171.054398 268.218842,177.415894   C281.229553,180.585968 294.490662,183.025513 308.531616,181.999847   C309.000000,184.971786 310.145416,188.999878 308.664398,190.605865   C307.297516,192.088089 303.112885,190.992828 300.169281,190.996109   C290.758636,191.006577 281.347961,191.000000 271.468658,191.000000  z"/>
<path fill="#4D4D4D" opacity="1.000000" stroke="none" d=" M201.630493,91.106537   C201.036163,89.015030 199.900345,87.645813 198.738770,86.195206   C179.012772,61.561008 167.099411,33.965885 167.000000,1.465469   C172.688034,1.000000 178.376083,1.000000 184.532059,1.000000   C184.970398,13.409208 188.175232,25.138378 191.827255,36.902931   C197.263474,54.415092 207.491119,68.836533 219.291168,82.402000   C221.427307,84.857697 224.944382,86.041992 225.961884,89.939751   C225.352402,94.382423 222.775345,95.561386 218.862869,94.726982   C220.009735,98.801842 218.280258,101.493126 214.856506,103.681015   C210.002869,103.231087 212.440628,98.733337 210.252792,96.476273   C209.040924,91.701447 205.112961,92.107658 201.630493,91.106537  z"/>
<path fill="#4D4D4D" opacity="1.000000" stroke="none" d=" M309.000000,140.532394   C274.879944,138.696564 243.286423,129.741257 216.935608,105.978676   C216.608032,100.542267 218.870468,99.171318 224.068970,101.292320   C222.386459,97.820351 222.191528,94.776085 226.799652,93.010544   C228.280365,93.266319 229.410568,93.523575 230.863754,93.919312   C232.548553,94.937241 232.170776,96.417503 232.373520,97.662956   C233.295105,103.323914 234.531128,106.563133 242.672089,103.798782   C244.620407,105.708305 246.641159,106.150497 249.476059,105.609360   C250.097977,107.528519 251.674652,108.193611 253.084473,109.097862   C264.202698,116.228951 276.904510,118.809761 289.422241,122.037544   C295.596619,123.629654 301.753998,124.296745 308.535156,123.999886   C309.000000,129.354935 309.000000,134.709854 309.000000,140.532394  z"/>
<path fill="#454545" opacity="1.000000" stroke="none" d=" M138.274200,90.819733   C132.466278,85.137451 130.261292,77.823822 127.340179,71.078873   C120.789650,55.953449 117.019699,39.920341 114.329552,23.713875   C113.143791,16.570396 113.399010,9.187727 113.000000,1.456826   C117.356903,1.000000 121.713799,1.000000 126.535355,1.000000   C127.798294,14.753671 130.386734,28.218668 133.379135,41.634560   C136.543625,55.821949 141.963440,69.103806 148.902832,81.817261   C149.777817,83.420311 150.465240,85.146507 152.521530,86.306641   C153.072113,91.296768 149.211884,94.416260 144.719131,92.683487   C142.687912,91.900085 140.592514,91.762054 138.274200,90.819733  z"/>
<path fill="#5D5D5D" opacity="1.000000" stroke="none" d=" M309.000000,33.531342   C291.865997,33.811592 274.487335,17.843002 273.999817,1.419752   C284.763153,1.000000 295.527863,1.098479 306.288208,0.924269   C308.696259,0.885283 309.102020,1.466955 309.065796,3.754852   C308.911194,13.522029 309.000000,23.293058 309.000000,33.531342  z"/>
<path fill="#F8F8F8" opacity="1.000000" stroke="none" d=" M50.836548,101.439301   C50.819592,95.690460 50.954117,90.376556 50.961105,85.062492   C50.964642,82.374802 51.558334,80.118286 54.568775,78.729340   C62.164207,77.336143 69.469887,78.166069 76.747803,78.048157   C82.545486,77.954224 88.358879,77.695305 94.611343,78.437424   C97.993004,80.057983 98.806198,82.543320 98.769470,85.615532   C98.689850,92.275040 98.762749,98.936226 98.737579,105.596588   C98.712753,112.162971 97.369293,113.503952 90.869629,113.572792   C89.204926,113.590416 87.540253,113.610992 85.439728,113.757164   C76.284233,113.779488 67.564644,113.668098 58.844864,113.575111   C56.704624,113.552292 54.532093,113.737221 52.361294,112.110901   C50.453316,108.730171 51.131248,105.255585 50.836548,101.439301  z"/>
<path fill="#E0E0E0" opacity="1.000000" stroke="none" d=" M111.946793,90.716988   C113.182266,90.497192 114.363701,90.117249 115.114090,90.526894   C116.386688,91.221596 119.102509,90.000984 118.861237,92.611214   C118.610367,95.325333 116.633179,93.344841 115.417328,93.388214   C114.585457,93.417900 113.536362,93.328217 113.339432,94.249748   C113.015358,95.766197 114.379753,96.216759 115.444489,96.513535   C119.137970,97.543060 121.580925,99.240067 119.681305,103.883911   C116.553978,106.364113 113.436707,106.754570 109.931641,104.387413   C109.448479,103.603500 109.389687,103.114403 109.692627,102.275635   C111.873589,100.737991 114.668266,105.105576 115.774971,101.634544   C116.445869,99.530357 112.887352,99.439392 111.359787,98.278198   C107.648338,95.456879 108.336090,93.215836 111.946793,90.716988  z"/>
<path fill="#5D5D5D" opacity="1.000000" stroke="none" d=" M94.878754,78.292885   C81.995621,78.650574 68.922882,78.682495 55.381516,78.638191   C58.320377,75.613853 62.396774,77.744583 66.563507,77.085037   C74.491013,77.078880 81.961212,77.046768 89.430931,77.093033   C91.209328,77.104042 93.115669,76.615898 94.878754,78.292885  z"/>
<path fill="#5D5D5D" opacity="1.000000" stroke="none" d=" M109.627930,101.987526   C109.822914,102.417969 109.765320,102.889091 109.694427,103.715950   C108.337479,103.576340 108.104187,102.914833 109.627930,101.987526  z"/>
<path fill="#E0E0E0" opacity="1.000000" stroke="none" d=" M137.664948,90.772202   C140.223846,90.282318 142.498917,90.080780 144.645248,91.133430   C148.438660,92.993896 150.927933,91.708885 152.624512,86.804565   C156.052261,86.906273 155.039001,92.069153 159.566223,91.181114   C153.598099,95.968292 153.522491,100.916779 158.843933,104.469543   C154.284790,107.014961 152.364670,105.992920 152.034744,100.781235   C151.919769,98.964851 152.028854,97.134491 151.919556,95.317490   C151.796799,93.277077 150.119461,93.129524 148.662140,93.041832   C146.872543,92.934151 147.160599,94.430542 147.156479,95.503860   C147.146317,98.152687 147.230057,100.801865 147.399597,103.854553   C144.463837,104.738480 141.414932,105.462341 138.340729,105.593651   C136.860886,105.656853 134.932022,105.142624 134.510971,103.066925   C133.938766,100.246170 135.026031,98.202721 137.811218,96.697708   C138.198456,95.776253 138.976334,95.160355 138.217010,94.120651   C135.414078,93.446198 135.129883,92.484299 137.664948,90.772202  z"/>
<path fill="#E0E0E0" opacity="1.000000" stroke="none" d=" M169.901825,90.434784   C172.028046,91.036293 173.829727,91.577065 174.921646,93.692963   C174.571106,94.587929 174.247131,95.219864 173.324860,95.731796   C172.532455,95.882805 172.069595,95.797592 171.859711,95.781448   C173.162476,96.106361 174.058350,95.763031 175.179245,95.219955   C176.592224,96.647423 176.580002,97.963425 175.172394,99.425980   C175.258240,100.352234 172.971786,100.641724 174.794113,101.836349   C174.863083,106.082474 171.516312,105.414871 169.194138,105.688217   C165.879257,106.078423 163.567398,104.087746 162.237701,101.214020   C160.879440,98.278603 161.470749,95.424065 163.450348,92.906570   C164.387848,91.714333 165.681458,90.996040 167.499268,90.627777   C168.386047,90.274452 168.979172,90.135780 169.901825,90.434784  z"/>
<path fill="#E0E0E0" opacity="1.000000" stroke="none" d=" M189.188278,103.245819   C188.250214,99.494415 191.347733,95.146576 186.485306,92.320206   C185.991455,92.033142 189.242477,89.117531 190.221756,86.917221   C190.631470,85.996689 192.123978,87.284988 192.215500,88.661667   C192.276276,89.575897 192.695221,90.232376 193.626831,90.441673   C197.550827,91.323204 196.807007,92.058937 193.766846,93.532936   C191.395966,94.682426 191.460785,101.044518 193.652664,102.576057   C194.477386,103.152321 196.308411,102.716492 195.727631,104.542259   C195.298126,105.892487 193.875793,105.668358 192.376984,105.855682   C191.005402,105.239510 189.855408,104.725517 189.188278,103.245819  z"/>
<path fill="#4B4B4B" opacity="1.000000" stroke="none" d=" M174.986740,101.635544   C172.493210,101.161812 170.360657,103.802864 167.816757,102.744293   C166.686005,102.273766 165.463837,101.742836 165.661484,100.432281   C165.827652,99.330467 167.147308,99.340851 168.118073,99.327896   C170.096848,99.301491 172.076523,99.342987 174.510727,99.479355   C174.973312,100.144547 174.980972,100.686890 174.986740,101.635544  z"/>
<path fill="#F8F8F8" opacity="1.000000" stroke="none" d=" M172.641266,95.164948   C173.448395,94.758186 173.951248,94.505836 174.709381,94.133347   C175.221664,94.226784 175.383850,94.497215 175.464462,95.063889   C175.076202,96.662148 174.428436,97.630272 172.459763,97.020035   C171.462280,96.378349 171.869186,95.845413 172.641266,95.164948  z"/>
<path fill="#4B4B4B" opacity="1.000000" stroke="none" d=" M170.001068,90.311981   C169.542252,90.640274 168.896255,90.721489 168.031586,90.680573   C168.339401,89.824287 168.936249,89.375366 170.001068,90.311981  z"/>
<path fill="#E0E0E0" opacity="1.000000" stroke="none" d=" M127.350479,87.290558   C127.862320,88.484749 127.965866,90.072578 128.465408,90.208847   C132.531006,91.317909 133.343048,91.989105 128.616516,93.702805   C126.571053,94.444427 127.525330,101.354073 129.766190,102.667702   C130.642532,103.181427 131.732422,103.256134 131.311905,104.595634   C130.938492,105.785095 129.844162,105.820488 128.849945,105.742149   C126.117867,105.526848 124.867584,104.069046 124.582840,101.267723   C124.279068,98.279190 126.298660,94.456390 121.972389,92.657150   C123.363800,90.477379 123.941902,87.555222 127.350479,87.290558  z"/>
<path fill="#454545" opacity="1.000000" stroke="none" d=" M138.003143,94.351303   C138.695038,93.083000 139.648941,92.910538 140.662827,92.890900   C142.109848,92.862885 143.526489,93.286537 143.576187,94.861252   C143.629684,96.556656 141.955368,96.018188 140.931458,96.223366   C140.286545,96.352600 139.625671,96.402237 138.517883,96.494675   C138.045181,95.928192 138.026550,95.354622 138.003143,94.351303  z"/>
<path fill="#E0E0E0" opacity="1.000000" stroke="none" d=" M227.161423,92.744064   C222.809143,96.123566 223.964417,99.207672 227.122208,102.381714   C227.846878,103.110123 229.222183,104.113350 227.803177,105.218201   C226.740143,106.045952 225.329575,105.389519 224.805511,104.343239   C221.362503,97.469284 219.301132,102.372360 216.796692,105.495941   C216.619858,105.805702 216.225845,105.646912 216.225845,105.646912   C216.225845,105.646912 215.801025,105.647705 215.604614,105.728561   C214.410675,105.453804 214.261948,104.644684 214.469498,103.341232   C217.266312,99.850822 219.611908,96.737190 215.592682,92.990807   C214.930328,92.373398 214.643051,91.544228 215.547180,90.948151   C216.440323,90.359291 217.692474,90.329544 218.204407,91.258034   C221.158707,96.616280 223.213669,92.984627 225.721710,90.465286   C226.889923,90.767006 228.159027,91.025940 227.161423,92.744064  z"/>
<path fill="#E0E0E0" opacity="1.000000" stroke="none" d=" M250.434937,105.498169   C250.027374,105.521805 249.892654,105.420174 249.822571,105.465591   C248.922394,104.588997 247.266632,103.897377 248.209000,102.332077   C248.943863,101.111443 249.838440,102.197388 250.673096,102.625130   C252.135559,103.374603 253.864853,104.128792 254.760956,102.061081   C255.863327,99.517448 253.498154,99.534538 252.071014,99.053215   C249.285812,98.113861 247.039536,96.736023 248.400925,93.353683   C249.724854,90.064445 252.588348,89.976456 255.537064,90.677361   C256.701782,90.954216 257.865204,91.646111 257.473419,93.045975   C257.127655,94.281540 255.954056,93.972992 254.975784,93.690407   C253.708740,93.324394 252.055008,92.842453 251.700165,94.489990   C251.375687,95.996582 253.341782,96.644478 254.344101,97.013367   C257.029694,98.001724 259.540131,99.265778 258.061890,102.376160   C256.807404,105.015709 254.403488,107.152405 250.434937,105.498169  z"/>
<path fill="#E0E0E0" opacity="1.000000" stroke="none" d=" M243.031616,103.569473   C240.052246,106.388878 236.907578,106.328300 233.803207,104.471710   C229.921661,102.150330 230.304810,98.486450 231.131866,94.418839   C231.927094,93.423119 232.667465,92.788437 233.676743,92.031219   C234.397430,91.978271 234.825729,92.117722 235.474274,92.566193   C236.700790,95.813072 239.713287,94.599365 241.954391,95.763733   C242.980942,96.439240 243.526901,97.201729 244.658691,97.782974   C242.962646,100.675339 240.135117,98.757309 237.759048,99.296127   C236.830399,99.506714 235.651367,99.103188 235.041733,100.050644   C234.298431,101.205795 235.641830,101.733009 236.053833,102.543365   C236.708923,103.831848 237.603287,103.804398 238.911346,103.414291   C240.215576,103.025314 241.563568,100.174507 243.031616,103.569473  z"/>
<path fill="#F8F8F8" opacity="1.000000" stroke="none" d=" M235.652237,93.548874   C235.071030,93.009499 234.721390,92.723038 234.158691,92.172623   C240.249832,89.066521 242.286057,90.065926 244.883240,97.618195   C244.068558,97.752457 243.199768,97.518898 242.099991,97.029884   C240.384064,94.756439 237.778061,94.995651 235.652237,93.548874  z"/>
<path fill="#E0E0E0" opacity="1.000000" stroke="none" d=" M201.163361,91.187271   C205.436829,89.747757 209.209564,89.510017 211.475159,94.587418   C212.145370,98.183975 212.217163,101.429855 211.455658,105.069557   C208.998932,104.773491 207.033615,104.325706 204.750641,105.675026   C202.471420,107.022141 200.651199,105.157761 199.434036,103.423988   C198.312668,101.826668 198.320511,99.785698 200.011856,98.510635   C202.406616,96.705269 204.102325,95.221199 200.312256,93.107521   C199.729492,92.782524 200.570389,91.979942 201.163361,91.187271  z"/>
<path fill="#5D5D5D" opacity="1.000000" stroke="none" d=" M211.479156,105.605469   C211.260208,102.261391 211.366852,99.066246 211.552887,95.407440   C214.471344,96.873726 211.622101,100.567627 214.328110,102.790985   C214.744293,103.690758 214.849792,104.434715 215.181763,105.494049   C214.207047,105.791084 213.005905,105.772743 211.479156,105.605469  z"/>
<path fill="#E0E0E0" opacity="1.000000" stroke="none" d=" M82.963242,97.919647   C82.307411,100.502747 83.384285,102.017570 85.332802,104.007416   C77.978813,104.007416 70.624519,104.043251 63.271091,103.979065   C61.680740,103.965179 60.943043,102.768204 60.914101,101.291794   C60.849068,97.974533 60.866150,94.655136 60.888832,91.336868   C60.904449,89.051750 62.266312,88.041557 64.386139,88.031998   C71.521965,87.999802 78.658287,87.998306 85.793930,88.051201   C88.032318,88.067787 89.046631,89.397583 89.038345,91.588257   C89.027176,94.542297 89.035576,97.496399 89.035576,100.450478   C88.609657,100.469810 88.183746,100.489143 87.757828,100.508476   C87.757828,97.894470 87.781578,95.280167 87.749985,92.666542   C87.726593,90.732109 86.535477,90.187096 84.789604,90.153641   C82.187332,90.103798 82.936218,91.804306 82.838547,93.814262   C82.286430,94.518867 81.805191,94.711159 81.665733,94.549347   C78.129379,90.446030 73.473236,91.688087 68.752113,91.654160   C64.323212,90.450233 63.755264,91.080956 63.611053,96.835274   C64.035133,92.223511 64.035133,92.223511 67.619720,90.767921   C69.267372,92.050781 69.811638,93.480202 70.086990,95.212914   C71.017151,101.066200 74.868904,102.430603 79.572960,98.670807   C80.096016,98.252747 80.651810,97.919777 81.632034,97.635651   C82.223335,97.608551 82.460869,97.642258 82.963242,97.919647  z"/>
<path fill="#E0E0E0" opacity="1.000000" stroke="none" d=" M83.042435,93.973221   C84.110748,95.031166 84.225388,96.273972 83.413681,97.885666   C83.228081,98.163330 82.896408,97.938728 82.730438,97.826630   C81.857025,96.812317 81.793678,95.843880 82.506401,94.517120   C82.745850,94.213943 82.943085,94.052856 83.042435,93.973221  z"/>
<path fill="#585858" opacity="1.000000" stroke="none" d=" M142.756958,98.631989   C144.931503,100.462692 143.701385,101.689674 142.331604,102.663483   C141.201675,103.466759 139.829422,103.427895 138.622910,102.652290   C137.892914,102.183014 137.400345,101.350098 137.720123,100.549332   C138.559891,98.446350 140.534439,98.656509 142.756958,98.631989  z"/>
<path fill="#515151" opacity="1.000000" stroke="none" d=" M172.617920,94.871002   C172.820312,95.554871 172.695053,96.099213 172.356293,96.838974   C171.335037,96.950539 170.524216,96.889153 169.720291,96.777832   C168.320633,96.584030 166.740158,97.311691 165.549850,96.094322   C164.939316,95.469925 165.483521,94.831451 165.915939,94.399109   C167.332550,92.982704 169.063049,92.731750 170.873688,93.445602   C171.428604,93.664368 171.822586,94.291397 172.617920,94.871002  z"/>
<path fill="#5D5D5D" opacity="1.000000" stroke="none" d=" M235.229401,93.605423   C238.340958,92.490234 241.221924,91.776649 241.914612,96.430084   C239.921188,96.775444 237.969376,96.855652 236.026550,96.757698   C233.528076,96.631744 233.905304,95.373390 235.229401,93.605423  z"/>
<path fill="#5D5D5D" opacity="1.000000" stroke="none" d=" M202.496094,99.728912   C203.190491,99.237030 203.623047,98.893463 204.082886,98.851921   C205.706924,98.705177 207.934875,97.391045 208.435379,100.130768   C208.732773,101.758667 207.189774,102.819595 205.660736,103.021957   C203.572327,103.298370 201.489365,103.158096 202.496094,99.728912  z"/>
<path fill="#4B4B4B" opacity="1.000000" stroke="none" d=" M204.445755,96.143402   C202.945114,95.808937 201.981018,95.400414 202.786926,94.196449   C203.722427,92.798866 205.195206,92.742905 206.673187,93.085320   C207.520920,93.281715 208.158493,93.939262 208.041351,94.789940   C207.775375,96.721550 206.130920,95.954750 204.445755,96.143402  z"/>
<path fill="#F8F8F8" opacity="1.000000" stroke="none" d=" M82.443558,94.046051   C82.735161,95.151474 82.724472,96.089005 82.639114,97.370537   C80.203690,103.055458 75.076424,102.816345 71.148758,101.771996   C66.472977,100.528732 68.362488,95.488029 68.034973,91.444199   C70.124886,90.713127 72.254166,90.476318 74.368935,90.146507   C77.834602,89.606018 80.525475,90.602982 82.443558,94.046051  z"/>
<path fill="#F8F8F8" opacity="1.000000" stroke="none" d=" M67.989716,91.012131   C63.937595,92.871841 66.134048,96.340858 65.894737,99.168800   C65.809509,100.175972 66.874207,101.604538 64.897102,101.826691   C63.669868,101.964592 62.378422,101.687874 62.304943,100.212952   C62.165802,97.419952 61.818161,94.514084 62.407394,91.842651   C62.999134,89.159866 65.501984,90.260925 67.690018,90.775459   C68.002129,90.991714 67.995804,91.004906 67.989716,91.012131  z"/>
<path fill="#E0E0E0" opacity="1.000000" stroke="none" d=" M76.469269,94.511932   C76.519112,95.674385 76.613792,96.487328 76.779366,97.285553   C77.122864,98.941628 76.890945,100.485733 74.927216,100.538620   C73.178001,100.585732 73.096794,99.220566 73.270950,97.699112   C73.414925,96.441353 72.938568,95.125122 72.936440,93.834473   C72.934418,92.605637 73.464256,91.427917 74.868774,91.411674   C76.722992,91.390205 76.922920,92.663399 76.469269,94.511932  z"/>
</svg>